<?xml version="1.0" standalone="no"?><!DOCTYPE svg PUBLIC "-//W3C//DTD SVG 1.1//EN" "http://www.w3.org/Graphics/SVG/1.1/DTD/svg11.dtd"><svg t="1563983290774" class="icon" viewBox="0 0 1024 1024" version="1.1" xmlns="http://www.w3.org/2000/svg" p-id="8592" xmlns:xlink="http://www.w3.org/1999/xlink" width="200" height="200"><defs><style type="text/css"></style></defs><path d="M588.2 731c-5.2-3.6-14.4-9-35-9L321 722c-69.4 0-129-52.2-129-118.4L192 402l-3.6 0C135.8 402 96 443 96 493l0 257.8c0 50 42.8 81.2 95.4 81.2L224 832l0 96 106.2-90c3.8-2.8 10.6-6 26.4-6l179.6 0c46 0 94.8-22.8 103.8-64L588.2 731z" p-id="8593" fill="#abb4bf"></path><path d="M802 96 367.4 96C298 96 256 149.6 256 215.6l0 139.4L256 552c0 66.2 56 120 125.4 120l202.2 0c20.8 0 30 4.6 35 8.4L768 800l0-128 34 0c69.6 0 126-53.8 126-119.8L928 215.6C928 149.6 871.6 96 802 96z" p-id="8594" fill="#abb4bf"></path></svg>