<?xml version="1.0" standalone="no"?><!DOCTYPE svg PUBLIC "-//W3C//DTD SVG 1.1//EN" "http://www.w3.org/Graphics/SVG/1.1/DTD/svg11.dtd"><svg class="icon" width="200px" height="200.00px" viewBox="0 0 1024 1024" version="1.1" xmlns="http://www.w3.org/2000/svg"><path fill="#3281ff" d="M302.08 844.8l171.52-69.632 38.4-15.36 38.4 15.36L721.92 844.8l-5.12-189.44-1.024-37.376 23.552-29.184 110.08-137.216-177.152-53.76-34.304-10.24-20.48-29.184L512 205.312 406.528 357.888l-20.48 29.184-34.304 10.24-177.152 53.76 110.08 137.216 23.552 29.184-1.024 37.888-5.12 189.44m526.336 153.6L512 870.4l-316.416 128 9.216-346.112L0 397.312l322.048-97.792L512 25.6l189.952 273.92L1024 397.312 819.2 652.288l9.216 346.112z"  /></svg>