<?xml version="1.0" encoding="UTF-8"?>
<svg width="890px" height="829px" viewBox="0 0 890 829" version="1.1" xmlns="http://www.w3.org/2000/svg" xmlns:xlink="http://www.w3.org/1999/xlink">
    <!-- Generator: Sketch 51.2 (57519) - http://www.bohemiancoding.com/sketch -->
    <title>Untitled</title>
    <desc>Created with Sketch.</desc>
    <defs></defs>
    <g id="Page-1" stroke="none" stroke-width="1" fill="none" fill-rule="evenodd">
        <g id="feedback" transform="translate(123.000000, 115.000000)" fill="#ABB4BF" fill-rule="nonzero">
            <path d="M525.708909,0 L120.164545,0 C49.1342721,0 0.95136318,43.2292685 0.95136318,108.409757 L0,412.858536 C0,478.039024 49.1196366,521.268292 119.930363,521.268293 L237.284727,521.268293 L322.907455,600 L408.500909,521.268293 L525.855273,521.268293 C596.885546,521.268293 644.000001,478.039024 644,412.858536 L644,108.409757 C643.780455,43.2292685 596.666,0 525.708909,0 Z M200.737727,264.321951 C200.737727,295.390244 176.880454,320.590244 147.666273,320.590244 C118.364273,320.590244 94.5801819,295.317073 94.5801819,264.321951 C94.5801819,233.239025 118.437454,208.053658 147.666273,208.053658 C176.895091,208.053658 200.737728,233.312195 200.737727,264.321951 Z M374.969,264.321951 C374.969,295.390244 351.111727,320.590244 321.897546,320.590244 C292.668727,320.590244 268.884637,295.317073 268.884636,264.321951 C268.884636,233.239025 292.741909,208.053658 321.970727,208.053658 C351.199545,208.053658 374.954364,233.312195 374.954364,264.321951 L374.969,264.321951 Z M548.190364,264.321951 C548.190364,295.390244 524.347727,320.590244 495.118909,320.590244 C465.81691,320.590244 442.047455,295.317073 442.047455,264.321951 C442.047455,233.239025 465.890091,208.053658 495.118909,208.053658 C524.567273,208.126829 548.190364,233.312195 548.190364,264.321951 Z" id="Shape"></path>
        </g>
    </g>
</svg>