<?xml version="1.0" standalone="no"?><!DOCTYPE svg PUBLIC "-//W3C//DTD SVG 1.1//EN" "http://www.w3.org/Graphics/SVG/1.1/DTD/svg11.dtd"><svg class="icon" width="200px" height="200.00px" viewBox="0 0 1024 1024" version="1.1" xmlns="http://www.w3.org/2000/svg"><path fill="#ABB4BF" d="M488.54 39.103c-218.993 0-396.519 177.526-396.519 396.519 0 216.724 173.876 392.811 389.738 396.434l2.572 149.701c0 0 159.439-88.613 307.771-291.045 0.025-0.036 0.053-0.071 0.079-0.109 57.951-68.938 92.878-157.873 92.878-254.981-0.001-218.993-177.527-396.517-396.519-396.517zM530.846 684.251h-97.534v-95.458h97.534v95.458zM563.027 461.305c-29.251 19.612-42.013 41.167-39.155 65.999l0.037 0.684v25.070h-83.66v-27.456c-1.614-49.391 21.783-92.019 69.543-126.501 39.522-27.183 57.342-56.544 53.072-87.349-4.279-35.329-24.428-53.901-61.607-56.874-2.507-0.14-5.123-0.217-7.657-0.217-47.74 0-75.676 26.55-85.412 81.169l-1.213 6.816-83.36-27.732 1.142-5.257c20.624-94.995 81.73-141.551 181.794-138.291 89.467 4.944 138.822 52.519 146.826 141.41l0.020 0.366c1.578 54.357-28.829 104.208-90.372 148.16z" /></svg>