<?xml version="1.0" standalone="no"?><!DOCTYPE svg PUBLIC "-//W3C//DTD SVG 1.1//EN" "http://www.w3.org/Graphics/SVG/1.1/DTD/svg11.dtd"><svg class="icon" width="200px" height="200.00px" viewBox="0 0 1024 1024" version="1.1" xmlns="http://www.w3.org/2000/svg"><path fill="#2c2c2c" d="M369.78 554.319c-88.733 12.255-152.475 80.925-142.491 153.307 10.016 72.382 90.045 121.148 178.778 108.892 88.67-12.255 152.508-80.925 142.492-153.37-9.984-72.382-90.045-121.117-178.779-108.83z m-25.887 204.505c-31.199 4.32-59.294-12.8-62.846-38.27-3.488-25.408 18.912-49.535 50.11-53.887 31.168-4.288 59.295 12.832 62.847 38.303 3.488 25.44-18.944 49.534-50.11 53.854z m79.55-81.885c-13.088 3.328-25.92-2.656-28.575-13.344-2.72-10.687 5.695-22.015 18.783-25.31 13.088-3.297 25.855 2.655 28.575 13.343 2.752 10.687-5.76 22.047-18.783 25.31zM830.374 434.29a36.34 36.34 0 0 0 14.176 2.88c14.175 0 27.71-8.351 33.599-22.271 6.783-16 10.207-33.055 10.207-50.59 0-71.646-58.27-129.948-129.916-129.948-17.503 0-34.527 3.424-50.59 10.207-18.56 7.872-27.231 29.28-19.392 47.807 7.872 18.56 29.28 27.263 47.839 19.423a56.895 56.895 0 0 1 22.143-4.448c31.391 0 56.959 25.536 56.959 56.959 0 7.743-1.472 15.2-4.416 22.175-7.872 18.527 0.832 39.967 19.391 47.806z m-84.957 53.79c3.584-10.27 7.135-20.415 7.135-20.415 63.87-122.588-100.796-162.555-195.225-110.46-94.397 52.158-48.83-36.095-48.83-36.095 15.615-161.179-153.82-89.853-153.82-89.853C-38.815 451.922 1.152 670.603 1.152 670.603c0 120.348 188.666 254.744 426.61 254.744 315.223 0 494.961-184.282 463.73-321.238-12.64-55.294-78.301-102.685-146.075-116.028zM380.884 862.758c-206.393 0-276.215-107.357-276.215-184.954 0-122.94 162.875-213.754 316.214-213.754 153.307 0 262.584 65.15 287.607 150.588 37.055 126.428-124.54 248.12-327.606 248.12zM758.44 98.685c-22.495 0-44.926 2.848-66.558 8.448-19.487 5.023-31.23 24.927-26.207 44.446 5.088 19.488 24.96 31.231 44.447 26.207 15.68-4.095 31.935-6.111 48.35-6.111 106.173 0 192.602 86.429 192.602 192.602 0 22.783-3.968 45.054-11.647 66.142-6.912 18.911 2.816 39.902 21.727 46.782 4.128 1.504 8.352 2.24 12.512 2.24 14.88 0 28.895-9.216 34.27-24 10.624-29.15 16.064-59.837 16.064-91.196-0.032-146.396-119.132-265.56-265.56-265.56z" /></svg>