<?xml version="1.0" standalone="no"?><!DOCTYPE svg PUBLIC "-//W3C//DTD SVG 1.1//EN" "http://www.w3.org/Graphics/SVG/1.1/DTD/svg11.dtd"><svg class="icon" width="200px" height="200.00px" viewBox="0 0 1024 1024" version="1.1" xmlns="http://www.w3.org/2000/svg"><path fill="#2c2c2c" d="M940.35 795.875c0 78.652-63.771 142.422-142.421 142.422H228.226c-78.655 0-142.427-63.772-142.427-142.422v-569.7c0-78.658 63.772-142.432 142.427-142.432H797.93c78.658 0 142.432 63.772 142.432 142.431l-0.01 569.701zM415.621 543.356h125.593c0-29.528-13.923-46.824-13.923-46.824H418.295c2.59-53.493 4.91-122.15 5.739-147.65h103.677s-0.561-43.871-12.091-43.871H333.378s10.971-57.374 25.594-82.7c0 0-54.417-2.938-72.98 69.622-18.562 72.56-46.404 116.43-49.356 124.446-2.953 8.013 16.031 3.795 24.044 0 8.015-3.797 44.294-16.876 54.84-67.496h56.35c0.76 32.082 2.99 130.397 2.287 147.649H258.15c-16.45 11.81-21.936 46.824-21.936 46.824h132.592c-5.53 36.615-15.239 83.813-28.817 108.835-21.513 39.655-32.904 75.934-110.525 138.368 0 0-12.657 9.28 26.576 5.906 39.231-3.372 76.356-13.498 102.087-64.963 13.378-26.756 27.213-60.697 38.006-95.121l-0.04 0.12 109.26 125.795s14.343-33.747 3.798-70.87l-80.994-90.698-27.42 20.279-0.031 0.099c7.615-26.7 13.092-53.095 14.795-76.061 0.042-0.553 0.084-1.119 0.121-1.689zM567.366 295.73v435.35h45.77l18.753 52.405 79.328-52.405h99.978V295.73H567.366zM764.09 684.253h-51.968l-64.817 42.817-15.319-42.817H615.81v-339.94h148.28v339.94z m0 0" /></svg>