<?xml version="1.0" standalone="no"?><!DOCTYPE svg PUBLIC "-//W3C//DTD SVG 1.1//EN" "http://www.w3.org/Graphics/SVG/1.1/DTD/svg11.dtd"><svg class="icon" width="200px" height="181.40px" viewBox="0 0 1129 1024" version="1.1" xmlns="http://www.w3.org/2000/svg"><path fill="#2c2c2c" d="M268.463 70.487a70.724 70.724 0 0 1 60.115 0 147.106 147.106 0 0 1 36.776 26.875l141.449 123.767h101.136L749.386 97.362a148.52 148.52 0 0 1 36.776-26.875 70.724 70.724 0 0 1 94.065 58.701 70.724 70.724 0 0 1-15.56 47.385 395.348 395.348 0 0 1-31.118 28.29 204.392 204.392 0 0 1-19.803 16.266h88.405a149.935 149.935 0 0 1 103.965 46.678 150.642 150.642 0 0 1 47.385 103.964v406.664a286.433 286.433 0 0 1-3.537 61.53 157.008 157.008 0 0 1-70.723 99.014 152.057 152.057 0 0 1-81.333 22.632H248.659a299.87 299.87 0 0 1-63.65-3.537 156.3 156.3 0 0 1-97.6-70.724 151.35 151.35 0 0 1-24.047-81.333v-402.42a316.844 316.844 0 0 1 0-58.7 155.593 155.593 0 0 1 141.449-125.89h92.649c-14.853-10.608-27.583-23.339-41.02-34.654a70.724 70.724 0 0 1-22.632-57.994 70.724 70.724 0 0 1 34.655-55.872m-16.268 274.41a70.724 70.724 0 0 0-55.872 50.92 95.477 95.477 0 0 0 0 26.876v334.524a70.724 70.724 0 0 0 48.8 70.725 93.356 93.356 0 0 0 30.41 4.95h574.988a70.724 70.724 0 0 0 67.187-41.727 99.014 99.014 0 0 0 7.073-46.678V433.302a118.817 118.817 0 0 0 0-33.948 70.724 70.724 0 0 0-45.97-48.093 113.866 113.866 0 0 0-43.849-6.365H285.436a236.218 236.218 0 0 0-33.24 0z m115.988 110.328a70.724 70.724 0 0 1 48.8 16.267 70.724 70.724 0 0 1 24.753 52.336v70.724a70.724 70.724 0 0 1-14.145 45.264 70.724 70.724 0 0 1-115.988-8.487 91.942 91.942 0 0 1-9.193-48.093v-70.724a70.724 70.724 0 0 1 61.53-59.408z m365.642 0a70.724 70.724 0 0 1 75.676 66.48v70.726a82.747 82.747 0 0 1-10.608 46.677 70.724 70.724 0 0 1-116.695 0 84.161 84.161 0 0 1-11.316-50.213V518.17a70.724 70.724 0 0 1 61.53-62.237z"  /></svg>