<?xml version="1.0" standalone="no"?><!DOCTYPE svg PUBLIC "-//W3C//DTD SVG 1.1//EN" "http://www.w3.org/Graphics/SVG/1.1/DTD/svg11.dtd"><svg class="icon" width="200px" height="200.00px" viewBox="0 0 1024 1024" version="1.1" xmlns="http://www.w3.org/2000/svg"><path d="M506.117013 484.042251m-428.765297 0a428.765297 428.765297 0 1 0 857.530594 0 428.765297 428.765297 0 1 0-857.530594 0Z"  /><path d="M369.150548 355.026876h52.698223v191.090153c0 9.019421 0.552585 16.853853 1.661849 23.500227 1.105171 6.646374 3.164063 13.137205 6.171559 19.464307l28.010961 61.956073c1.899256 4.273327 4.232394 7.080256 7.002484 8.426927 2.76702 1.342578 6.843872 2.01796 12.22544 2.01796h27.536146l-0.237407 44.864814h-39.404452c-10.289344 0-17.922185-0.474814-22.906709-1.425466-4.985548-0.949628-9.851369-3.482311-14.59951-7.596002-4.747117-4.116761-9.257851-11.790534-13.530154-23.025413L396.450311 629.435643l-19.464308 43.677778c-3.323699 7.437389-5.897314 12.93766-7.714705 16.497743-1.821485 3.560082-5.263887 7.396457-10.326183 11.513218-5.066389 4.113691-14.799054 6.17156-29.197996 6.171559h-44.627406v-42.253336h26.111704c4.903683 0 8.93858-0.871857 12.106736-2.611477 3.164063-1.74269 7.039323-7.993045 11.631921-18.75311l26.349112-62.905702c2.054799-4.90266 3.876284-11.393491 5.459338-19.464307 1.579985-8.070816 2.37407-13.923104 2.374071-17.566074V355.026876z m-82.370009-92.102675H498.995825v338.501504h-51.748595v-287.702537H340.188936v287.701514h-53.409421V262.924201z m269.185812-2.136663l62.193481-0.474814v30.146601h105.158015v49.611931H618.159832V448.791399h106.107643v202.246237c0 6.011924-0.675382 12.462846-2.01796 19.346627-1.346671 6.883781-3.839445 12.777001-7.478322 17.683755-3.64297 4.903683-9.457396 8.901741-17.447371 11.988032-7.993045 3.086291-16.579607 4.628414-25.755593 4.628414H525.344936V448.791399l30.621415-0.474814V260.787538z m107.769492 240.22727h-80.70816v150.497643h64.091714c11.075243 0 16.616446-7.043417 16.616446-21.12718V501.014808z" fill="#FFFFFF" /></svg>