<?xml version="1.0" standalone="no"?><!DOCTYPE svg PUBLIC "-//W3C//DTD SVG 1.1//EN" "http://www.w3.org/Graphics/SVG/1.1/DTD/svg11.dtd"><svg class="icon" width="200px" height="200.00px" viewBox="0 0 1024 1024" version="1.1" xmlns="http://www.w3.org/2000/svg"><path fill="#FF8C8C" d="M139.124106 600.856747L377.029494 600.856747c-92.185562 340.464205 63.516616 357.853247 63.516616 357.853247 65.993017 0 52.312436-52.18247599 57.3031-60.881602 0-166.502152 176.849824-296.971645 176.849824-296.971645l-1e-8-472.171899c0-46.607504-63.516616-63.393819-88.43309799-63.393819l-357.452111 0c-33.641191 0-61.036122 88.224344-61.036122 88.224344-88.43412199 300.70569-88.434122 390.177444-88.43412199 390.177444C79.342558 605.820805 139.124106 600.856747 139.124106 600.856747L139.124106 600.856747 139.124106 600.856747zM139.124106 600.856747"  /><path fill="#FF8C8C" d="M772.328585 600.700181L914.785088 600.700181c29.420053 0 29.873378-28.89612 29.873378-28.89612l-29.420053-476.202703c0-30.30930601-30.36149501-30.309306-30.36149499-30.309306L761.57977699 65.292052c-25.68600901 0-25.458835 20.049638-25.458835 20.049638L736.12094199 564.588729C736.120942 601.162716 772.328585 600.700181 772.328585 600.700181L772.328585 600.700181 772.328585 600.700181zM772.328585 600.700181"  /></svg>