<?xml version="1.0" standalone="no"?><!DOCTYPE svg PUBLIC "-//W3C//DTD SVG 1.1//EN" "http://www.w3.org/Graphics/SVG/1.1/DTD/svg11.dtd"><svg t="1557896825665" class="icon" style="" viewBox="0 0 1024 1024" version="1.1" xmlns="http://www.w3.org/2000/svg" p-id="14096" xmlns:xlink="http://www.w3.org/1999/xlink" width="200" height="200"><defs><style type="text/css"></style></defs><path d="M838.122569 958.708971H185.893804c-38.087457 0-69.059865-30.830169-69.059865-68.724221V749.053997a68.741617 68.741617 0 0 1 23.221887-51.500954l190.317557-168.187537c-45.653783-52.625568-68.674079-125.066437-72.684416-164.688853-4.328585-42.827411-7.147794-150.528342 60.452837-225.334071C362.554316 90.206488 427.587472 65.290005 511.428995 65.290005c88.690972 0 156.693762 26.350135 202.12958 78.32181 69.429279 79.395258 60.754712 190.141548 56.4425 222.188428-8.624425 64.035432-35.671431 123.472126-74.496691 166.0652l188.321086 165.628248 0.016373 0.008187a68.781526 68.781526 0 0 1 23.322172 51.602261v140.880611c0.002047 37.894052-30.971385 68.724221-69.041446 68.724221zM511.428995 134.01525c-63.590294 0-111.459534 17.298991-142.29789 51.408856-49.126884 54.362118-46.476521 138.623197-43.053562 172.331927 3.808746 37.684274 30.620391 110.041232 76.107376 145.72085a34.408671 34.408671 0 0 1 13.137205 26.031886 34.317597 34.317597 0 0 1-11.59406 26.753317L185.55816 749.045811v140.938939H838.122569l0.319271-140.888797-216.894865-190.754508a34.372855 34.372855 0 0 1-11.660574-27.021424 34.357506 34.357506 0 0 1 13.540388-26.123984c48.019667-36.551474 72.013127-100.712773 78.455863-148.556431 2.382257-17.659195 11.610432-108.699678-40.050158-167.79254-31.813566-36.384675-82.417081-54.831816-150.403499-54.831816z" fill="#707070" p-id="14097" data-spm-anchor-id="a313x.7781069.0.i4" class="selected"></path><path d="M554.957371 838.443887h-85.905532V666.632823c0-18.977213 15.384385-34.362622 34.362622-34.362622h17.181311c18.978237 0 34.362622 15.384385 34.362622 34.362622v171.811064z" fill="#707070" p-id="14098" data-spm-anchor-id="a313x.7781069.0.i5" class="selected"></path></svg>