<?xml version="1.0" standalone="no"?><!DOCTYPE svg PUBLIC "-//W3C//DTD SVG 1.1//EN" "http://www.w3.org/Graphics/SVG/1.1/DTD/svg11.dtd"><svg class="icon" width="200px" height="200.00px" viewBox="0 0 1024 1024" version="1.1" xmlns="http://www.w3.org/2000/svg"><path fill="#ABB4BF" d="M716.8 256H384A128 128 0 0 0 256 384V460.8a51.2 51.2 0 0 0 51.2 51.2H256c0 141.4144 114.5856 256 256 256s256-114.5856 256-256h-51.2a51.2 51.2 0 0 0 51.2-51.2V307.2a51.2 51.2 0 0 0-51.2-51.2z m-281.6 358.4a25.6 25.6 0 1 1 0-51.2 25.6 25.6 0 0 1 0 51.2z m153.6 0a25.6 25.6 0 1 1 0-51.2 25.6 25.6 0 0 1 0 51.2zM512 0C229.2736 0 0 229.2736 0 512s229.2736 512 512 512 512-229.2736 512-512S794.7264 0 512 0zM308.6336 867.2256z m314.3168 38.7584z m92.672-38.8608C654.08 836.7104 585.216 819.2 512 819.2s-142.1312 17.5104-203.5712 47.9232A409.2928 409.2928 0 0 1 102.4 512a409.6 409.6 0 0 1 819.2 0 409.344 409.344 0 0 1-205.9776 355.1232z"  /></svg>